<svg xmlns="http://www.w3.org/2000/svg" viewBox="0 0 206.6 70.3"><symbol xmlns="http://www.w3.org/2000/svg" id="82ea1ace-fa32-4f3f-bc09-3e337e2efb36" viewBox="0 0 206.6 70.3" xml:space="preserve"><style>.nst0{fill-rule:evenodd;clip-rule:evenodd}</style><path id="nFill-1" class="nst0" d="M56.1 70.1c1.4 0 2.4-.7 2.4-2.2 0-1.4-.5-2.1-2.5-2.1-1.4 0-2.3.6-2.3 2.1.1 1.3.9 2.2 2.4 2.2"></path><path id="nFill-3" class="nst0" d="M68.5 58.4c2 0 3.3 1 3.3 4.1 0 3-1.4 4.6-3.5 4.6-2 0-3.3-1.7-3.3-4.4 0-3.3 1.5-4.3 3.5-4.3m-5.8 11.5c1 0 1.5-.2 1.7-1.1.2-1.2.2-1.4.5-1.4.5 0 .5 2.6 4.9 2.6 3.8 0 6.1-3.2 6.1-7.7 0-5-2.3-7.5-5.8-7.5-3.6 0-4.1 2-4.6 2-.2 0-.3-.1-.3-.6s.1-.9.1-2.4V51c0-1-.2-1.6-2-1.6-1.6 0-2.1.5-2.1 1.6v17.5c-.1.9.3 1.4 1.5 1.4"></path><path id="nFill-5" class="nst0" d="M81.6 68.4v-5.2c0-2.8 1.2-4.3 3.6-4.3 1.4 0 1.6-.9 1.6-2 0-1.2-.5-1.7-1.7-1.7-2.9 0-3.4 2.5-3.9 2.5-.2 0-.3-.1-.4-1.1-.2-1.1-.5-1.4-1.6-1.4-1.2 0-1.6.3-1.6 1.2 0 1-.1 4.4-.1 11.9 0 1 .5 1.5 2 1.5 1.8.1 2.1-.4 2.1-1.4"></path><path id="nFill-7" class="nst0" d="M101.8 68.4c0-1 .1-10.1.1-11.8 0-1-.6-1.3-2.1-1.3s-2 .4-2 1.2c0 .9.1 2.1.1 5.6 0 3.1-1 4.6-3 4.6-1.6 0-2.6-1.2-2.6-3.7 0-1.4.1-6 .1-6.5 0-1.1-.6-1.4-2-1.4-1.6 0-2 .5-2 1.4v7.4c0 4.1 1.6 6.2 4.9 6.2 4 0 4.2-2.9 4.7-2.9.3 0 .3.5.4 1.2.2.9.6 1.4 1.8 1.4 1.1.1 1.6-.5 1.6-1.4"></path><path id="nFill-9" class="nst0" d="M111.3 61.6c-3.2-.6-3.7-1.1-3.7-2.1s.9-1.5 2.5-1.5c1.4 0 2.3.4 2.9 1.5.2.4.7.9 1.5.9 1.2 0 1.8-.5 1.8-1.5 0-2-1.8-3.9-6.2-3.9-3.2 0-6.3 1.5-6.3 4.8 0 2 .8 3.7 4.9 4.4 3.2.5 4.1.8 4.1 1.7 0 .7-.5 1.4-2.5 1.4-3.8 0-3.5-2.4-5.3-2.4-1 0-1.4.5-1.4 1.5 0 1.4 1.7 3.8 6.3 3.8 4.7 0 6.8-2.1 6.8-4.5.1-1.9-.7-3.3-5.4-4.1"></path><path id="nFill-11" class="nst0" d="M125 67.3c-3.8 0-3.5-2.4-5.3-2.4-1 0-1.4.5-1.4 1.5 0 1.4 1.7 3.8 6.3 3.8 4.7 0 6.8-2.1 6.8-4.5 0-2-.8-3.3-5.5-4.1-3.2-.6-3.7-1.1-3.7-2.1s.9-1.5 2.5-1.5c1.4 0 2.3.4 2.9 1.5.2.4.7.9 1.5.9 1.2 0 1.8-.5 1.8-1.5 0-2-1.8-3.9-6.2-3.9-3.2 0-6.3 1.5-6.3 4.8 0 2 .8 3.7 4.9 4.4 3.2.5 4.1.8 4.1 1.7.1.7-.4 1.4-2.4 1.4"></path><path id="nFill-13" class="nst0" d="M140.3 57.9c2.4 0 3.4 1.4 3.4 2.4 0 .5-.2.6-.7.6h-5.5c-.5 0-.6-.2-.6-.6-.1-.9.9-2.4 3.4-2.4m-2.9 5.1h8.1c1.1 0 1.6-.3 1.6-2 0-3.9-2.5-6-6.9-6-4.7 0-7.3 3.1-7.3 7.4 0 4.8 2.8 7.9 7.3 7.9 4.8 0 6.5-2.5 6.5-3.9 0-1-.7-1.5-1.4-1.5-2.1 0-1.4 2.3-4.9 2.3-2.1 0-3.6-1.4-3.6-3.3-.1-.6 0-.9.6-.9"></path><path id="nFill-15" class="nst0" d="M154 67.1c-.3 0-.5.1-.6.1-.4 0-.5-.2-.5-.7 0-1.4.1-13.8.1-15.5 0-1.2-.6-1.6-1.9-1.6-1.5 0-2 .5-2 1.5v15.7c0 2.1 1.1 3.6 3.5 3.6 1.7 0 2.5-.6 2.5-1.8 0-.8-.4-1.3-1.1-1.3"></path><path id="nFill-17" class="nst0" d="M163.3 61.6c-3.2-.6-3.7-1.1-3.7-2.1s.9-1.5 2.5-1.5c1.4 0 2.3.4 2.9 1.5.2.4.7.9 1.5.9 1.2 0 1.8-.5 1.8-1.5 0-2-1.8-3.9-6.2-3.9-3.2 0-6.3 1.5-6.3 4.8 0 2 .8 3.7 4.9 4.4 3.2.5 4.1.8 4.1 1.7 0 .7-.5 1.4-2.5 1.4-3.8 0-3.5-2.4-5.3-2.4-1 0-1.4.5-1.4 1.5 0 1.4 1.7 3.8 6.3 3.8 4.7 0 6.8-2.1 6.8-4.5.1-1.9-.7-3.3-5.4-4.1"></path><path id="nFill-19" class="nst0" d="M186.5 64.7c-1.7-2.7-5.3-6.5-9.2-6.5-2.6 0-5.2 2-5.2 5.2s3 5.2 5.5 5.2c2.8 0 4.2-.9 6.6-.4 1.9.4 2.9 1.3 3.4 1.8.2.2.5.3.7.1.2-.1.3-.4.2-1-.4-1.5-1.1-3.1-2-4.4"></path><path id="nFill-21" class="nst0" d="M201.4 58.2c-3.9 0-7.5 3.8-9.2 6.5-.9 1.4-1.7 3-2 4.4-.1.6 0 .9.2 1s.5.1.7-.1c.5-.5 1.5-1.4 3.4-1.8 2.4-.5 3.7.4 6.6.4 2.6 0 5.5-2 5.5-5.2 0-3.3-2.6-5.2-5.2-5.2"></path><path id="nFill-23" class="nst0" d="M189.3 63.8c-1.8-3.9-4.3-4.7-6.1-7.2-.5-.6-.7-1.3-.7-2.1 0-2 1.6-3.7 3.6-3.7 1.7 0 2.8 1.3 3.2 2.3.4-.9 1.5-2.3 3.2-2.3 2 0 3.6 1.7 3.6 3.7 0 .8-.3 1.5-.7 2.1-1.8 2.5-4.3 3.3-6.1 7.2m5-3.8c1.1-1 1.9-1.7 2.4-2.5.5-.7 1-1.7 1-3.1 0-3-2.4-5.1-5.1-5.1-1.5 0-2.7.6-3.3 1.5-.7-.9-1.9-1.5-3.3-1.5-2.6 0-5.1 2.1-5.1 5.1 0 1.3.5 2.3 1 3.1.6.8 1.3 1.5 2.4 2.5 1.7 1.4 3 2.8 4.3 5.6.1.2.3.5.6.5s.5-.2.6-.5c1.4-2.7 2.8-4.2 4.5-5.6"></path><path id="nFill-78" class="nst0" d="M69.5 30.3c-3.5 0-3.9 2-4.3 2-.2 0-.3-.1-.3-.8v-5.6c0-.9-.5-1.2-1.9-1.2-1.5 0-1.9.4-1.9 1.4V44c0 1.1 1 1.2 2.2 1.2 1.4 0 1.8-.5 1.8-1.2v-6.2c0-2.5 1.2-3.9 2.9-3.9 2 0 2.6 1.2 2.6 3.7 0 1.4-.1 5.7-.1 6.2 0 1.1.6 1.4 2.1 1.4s1.9-.5 1.9-1.4v-7.4c.1-4.7-2.5-6.1-5-6.1"></path><path id="nFill-80" class="nst0" d="M88.4 30.6c-1.5 0-2 .4-2 1.2 0 .9.1 2.1.1 5.6 0 3.1-1 4.6-3 4.6-1.6 0-2.6-1.2-2.6-3.7 0-1.4.1-6 .1-6.5 0-1.1-.6-1.3-2-1.3-1.6 0-2 .5-2 1.4v7.4c0 4.1 1.6 6.2 4.9 6.2 4 0 4.2-2.9 4.7-2.9.3 0 .3.5.4 1.2.2.9.6 1.4 1.8 1.4 1.2 0 1.7-.6 1.7-1.5 0-1 .1-10.1.1-11.8-.2-1-.8-1.3-2.2-1.3"></path><path id="nFill-82" class="nst0" d="M100.2 42.4c-2 0-3.3-1.7-3.3-4.4 0-3.2 1.5-4.3 3.5-4.3s3.3 1 3.3 4.1c-.1 2.9-1.4 4.6-3.5 4.6m1.7-12.3c-3.6 0-4.1 2-4.6 2-.3.1-.3-.1-.3-.6s.1-.9.1-2.4v-2.9c0-1-.2-1.6-2-1.6-1.6 0-2.1.5-2.1 1.6v17.5c0 .9.4 1.4 1.6 1.4 1 0 1.5-.2 1.7-1.1.2-1.2.2-1.4.5-1.4.5 0 .5 2.6 4.9 2.6 3.8 0 6.1-3.2 6.1-7.7-.1-4.8-2.4-7.4-5.9-7.4"></path><path id="nFill-84" class="nst0" d="M33.6 36.6c-1.4-1.4-3-2.5-4.9-3.3s-3.9-1.2-6-1.2-4.1.4-6 1.2c-1.8.8-3.5 1.9-4.9 3.3-1.4 1.4-2.5 3-3.3 4.9s-1.2 3.9-1.2 6v14.7c0 .3.2.6.6.6.3 0 .6-.2.6-.6V47.4c0-1.9.4-3.8 1.1-5.5.7-1.7 1.7-3.2 3-4.5s2.8-2.3 4.5-3c1.8-.7 3.6-1.1 5.5-1.1s3.8.4 5.5 1.1c1.7.7 3.2 1.7 4.5 3s2.3 2.8 3 4.5 1.1 3.6 1.1 5.5v14.7c0 .3.2.6.6.6.3 0 .6-.2.6-.6V47.4c0-2.1-.4-4.1-1.2-6-.6-1.8-1.7-3.4-3.1-4.8"></path><path id="nFill-86" class="nst0" d="M40.6 62.1c0 1.7-1.4 3.1-3.1 3.1-1.7 0-3.1-1.4-3.1-3.1V47.4c0-3.1-1.2-6-3.4-8.2s-5.1-3.4-8.2-3.4-6 1.2-8.2 3.4-3.4 5.1-3.4 8.2v14.7c0 1.7-1.4 3.1-3.1 3.1S5 63.8 5 62.1V47.4c0-2.4.5-4.8 1.4-7 .9-2.1 2.2-4 3.8-5.7 1.6-1.6 3.6-2.9 5.7-3.8 2.2-.9 4.6-1.4 7-1.4s4.8.5 7 1.4c2.1.9 4 2.2 5.7 3.8 1.6 1.6 2.9 3.6 3.8 5.7.9 2.2 1.4 4.5 1.4 7v14.7h-.2zM36.2 34c-1.7-1.7-3.8-3.1-6-4.1-2.3-1-4.8-1.5-7.4-1.5s-5.1.5-7.4 1.5-4.3 2.3-6 4.1c-1.7 1.7-3.1 3.8-4.1 6-1 2.3-1.5 4.8-1.5 7.4v14.7c0 2.3 1.9 4.2 4.2 4.2s4.2-1.9 4.2-4.2V47.4c0-2.8 1.1-5.4 3.1-7.4s4.6-3.1 7.4-3.1 5.5 1.1 7.4 3.1c2 2 3.1 4.6 3.1 7.4v14.7c0 2.3 1.9 4.2 4.2 4.2s4.2-1.9 4.2-4.2V47.4c0-2.6-.5-5-1.5-7.4-.8-2.3-2.2-4.3-3.9-6z"></path><g id="nGroup-90" transform="translate(0 .028)"><path id="nFill-88" class="nst0" d="M37.5 68.9c-3.8 0-6.8-3.1-6.8-6.8V47.4c0-2.1-.8-4.1-2.3-5.6s-3.5-2.3-5.6-2.3-4.1.8-5.6 2.3-2.3 3.5-2.3 5.6v14.7c0 3.8-3.1 6.8-6.8 6.8s-6.8-3.1-6.8-6.8V47.3c0-2.9.6-5.7 1.7-8.4C4.1 36.3 5.6 34 7.6 32s4.3-3.5 6.9-4.6c2.7-1.1 5.5-1.7 8.4-1.7s5.7.6 8.4 1.7c2.6 1.1 4.9 2.6 6.9 4.6s3.5 4.3 4.6 6.9c1.1 2.7 1.7 5.5 1.7 8.4V62c-.2 3.9-3.2 6.9-7 6.9zM7.9 7.3c-.3 0-.6.2-.6.6v22.7l-.7.7-1.8 2.1V7.9c0-1.7 1.4-3.1 3.1-3.1S11 6.2 11 7.9v20c-.9.5-1.8 1.1-2.6 1.8V7.9c.1-.3-.2-.6-.5-.6zm-6.8.6c0-3.8 3.1-6.8 6.8-6.8s6.8 3.1 6.8 6.8v18.2c-.3.1-.6.2-.9.4-.6.2-1.1.5-1.7.8V7.9c0-2.3-1.9-4.2-4.2-4.2S3.7 5.6 3.7 7.9V35c-.7 1.1-1.4 2.3-1.9 3.6-.3.6-.5 1.2-.7 1.8V7.9zm44.3 39.5c0-3.1-.6-6-1.8-8.8-1.1-2.7-2.8-5.1-4.9-7.2s-4.5-3.7-7.2-4.9c-2.8-1.2-5.8-1.8-8.8-1.8-2.3 0-4.6.4-6.8 1V7.9c0-2.1-.8-4.1-2.3-5.6S10.1 0 7.9 0 3.8.8 2.3 2.3 0 5.8 0 7.9v54.2c0 2.1.8 4.1 2.3 5.6C3.8 69.2 5.8 70 7.9 70s4.1-.8 5.6-2.3 2.3-3.5 2.3-5.6V47.4c0-3.8 3.1-6.8 6.8-6.8 3.8 0 6.8 3.1 6.8 6.8v14.7c0 2.1.8 4.1 2.3 5.6s3.5 2.3 5.6 2.3 4.1-.8 5.6-2.3 2.3-3.5 2.3-5.6V47.4h.2z"></path></g></symbol><use href="#82ea1ace-fa32-4f3f-bc09-3e337e2efb36"></use></svg>