<svg xmlns="http://www.w3.org/2000/svg" id="Calque_1" data-name="Calque 1" viewBox="0 0 860.96 891.42">
  <defs>
    <style>
      .cls-1 {
        fill: #fff;
      }

      .cls-2 {
        fill: #f8b800;
      }

      .cls-3 {
        fill: #006c90;
      }

      .cls-4 {
        fill: #ed6a6a;
      }

      .cls-5 {
        fill: #73c4b8;
      }
    </style>
  </defs>
  <path class="cls-3" d="M430.46,98.76c-188.25,0-341.35,153.19-341.35,341.4,0,91.15,35.49,176.91,99.94,241.41,64.5,64.45,150.26,99.94,241.41,99.94,188.21,0,341.4-153.1,341.4-341.35S618.67,98.76,430.46,98.76h0Z"/>
  <path class="cls-2" d="M14.07,449.42c-5.2,2.16-11.24-.31-13.29-5.22-2.16-5.19.31-11.23,5.5-13.38,4.97-2.1,10.95.43,13.11,5.6,2.05,4.91-.35,10.93-5.33,13h.01Z"/>
  <path class="cls-5" d="M8.87,363.57c3.04-4.71,9.42-6.11,13.89-3.22,4.72,3.02,6.11,9.41,3.06,14.13-2.92,4.54-9.25,5.85-13.98,2.82-4.46-2.89-5.89-9.21-2.97-13.74h0Z"/>
  <path class="cls-4" d="M27.47,510.42c.24,5.63-4.17,10.45-9.48,10.68-5.62.25-10.44-4.17-10.67-9.79-.24-5.39,4.17-10.11,9.79-10.37,5.31-.23,10.13,4.11,10.36,9.48Z"/>
  <path class="cls-2" d="M841.56,436.42c2.16-5.17,8.14-7.7,13.11-5.6,5.2,2.15,7.67,8.2,5.5,13.38-2.05,4.91-8.1,7.38-13.29,5.22-4.97-2.07-7.37-8.09-5.33-13h.01Z"/>
  <path class="cls-4" d="M849.12,377.31c-4.73,3.02-11.07,1.72-13.98-2.82-3.05-4.73-1.66-11.11,3.06-14.13,4.47-2.89,10.85-1.49,13.89,3.22,2.92,4.53,1.49,10.85-2.97,13.74h0Z"/>
  <path class="cls-5" d="M843.85,500.93c5.62.26,10.03,4.99,9.79,10.37-.24,5.62-5.06,10.04-10.67,9.79-5.3-.23-9.71-5.05-9.48-10.68.23-5.37,5.05-9.71,10.36-9.48Z"/>
  <path class="cls-3" d="M21.91,281.15c-.71-.3-1.11-1.14-.78-1.92l3.58-8.48c.3-.71,1.22-1.08,1.93-.78l38.02,16.1,7.17-16.95c.33-.78,1.21-1.08,1.92-.78l7.76,3.28c.71.3,1.11,1.14.78,1.93l-11.33,26.77c-.33.78-1.21,1.08-1.92.78l-47.14-19.95h.01Z"/>
  <path class="cls-3" d="M93.82,246.26l-29.85-48.99c-.26-.45-.28-1.12.02-1.57l.42-.64c.3-.45.92-.68,1.44-.62l56.7,8.74c1.09.17,1.59,1.25.94,2.21l-4.76,7.14c-.78,1.16-1.5,1.42-3.11,1.18l-6.63-1.07-11.67,17.49,3.6,5.75c.56.84.86,2.06,0,3.35l-4.72,7.07c-.65.96-1.82.92-2.4-.02l.02-.02ZM97.68,210.65l-13.87-2.18-.04.06,7.39,11.9,6.52-9.78h0Z"/>
  <path class="cls-3" d="M179.92,80.09c-.42-.65-.27-1.57.45-2.03l15.69-10.05c8.01-5.13,18.76-2.84,23.81,5.04,5.18,8.08,2.81,18.87-5.14,23.96l-6.83,4.38,9.8,15.31c.42.65.21,1.61-.44,2.03l-7.68,4.91c-.72.46-1.62.21-2.03-.44l-27.63-43.12h0ZM208,87.92c2.8-1.79,3.72-5.51,1.85-8.44-1.75-2.73-5.43-3.32-8.24-1.52l-6.18,3.96,6.38,9.97,6.19-3.97h0Z"/>
  <path class="cls-3" d="M248.69,41.16c-.3-.71,0-1.59.78-1.92l8.48-3.56c.72-.3,1.62.07,1.92.78l15.99,38.05,16.96-7.13c.78-.33,1.62.07,1.92.78l3.26,7.77c.3.72,0,1.6-.78,1.92l-26.79,11.26c-.78.33-1.62-.07-1.92-.79l-19.82-47.17h0Z"/>
  <path class="cls-3" d="M324.48,66.33l12.81-55.95c.13-.5.58-1,1.11-1.11l.76-.16c.53-.12,1.14.15,1.46.56l34.54,45.84c.66.89.27,2-.87,2.24l-8.39,1.79c-1.36.29-2.07-.03-3.05-1.32l-4-5.39-20.57,4.39-1.43,6.64c-.18.98-.82,2.07-2.33,2.39l-8.32,1.77c-1.14.24-1.95-.61-1.71-1.69h-.01ZM352.11,43.52l-8.41-11.25-.07.02-3.01,13.69,11.5-2.45h0Z"/>
  <path class="cls-3" d="M409.34,12.17l-11.06.38c-.85.03-1.49-.65-1.51-1.42l-.3-8.43c-.03-.77.57-1.49,1.42-1.52L432.21,0c.85-.03,1.5.65,1.52,1.42l.29,8.42c.02.78-.57,1.5-1.42,1.52l-11.05.38,1.42,41.28c.02.77-.65,1.49-1.42,1.52l-9.28.32c-.77.03-1.5-.65-1.52-1.42l-1.42-41.28h0Z"/>
  <path class="cls-3" d="M475.43,3.88c.11-.77.82-1.37,1.66-1.25l31.71,4.49c.84.12,1.36.9,1.25,1.66l-1.19,8.35c-.11.77-.82,1.37-1.66,1.25l-21.21-3-1.34,9.5,17.46,2.47c.77.11,1.36.9,1.25,1.66l-1.18,8.35c-.12.84-.9,1.36-1.66,1.26l-17.47-2.48-1.46,10.34,21.22,3c.84.12,1.36.9,1.25,1.66l-1.18,8.35c-.11.77-.82,1.37-1.66,1.25l-31.71-4.49c-.84-.12-1.36-.9-1.25-1.66l7.18-50.7h-.01Z"/>
  <path class="cls-3" d="M553.27,19.26c.24-.73,1.05-1.2,1.86-.94l30.4,10.03c.8.27,1.18,1.13.93,1.86l-2.64,8.01c-.24.73-1.05,1.2-1.86.93l-20.34-6.7-3.49,10.57,16.74,5.52c.73.24,1.18,1.12.94,1.86l-2.64,8c-.24.73-1.12,1.18-1.85.93l-16.75-5.52-5.88,17.85c-.24.73-1.12,1.17-1.86.93l-8.66-2.86c-.81-.26-1.18-1.12-.94-1.85l16.03-48.61h0Z"/>
  <path class="cls-3" d="M648.16,57.32c13.44,7.65,18.04,24.6,10.39,38.04-7.65,13.44-24.48,18.01-37.93,10.36-13.44-7.64-18.05-24.42-10.4-37.85,7.65-13.45,24.49-18.19,37.94-10.54h0ZM626.75,94.96c7.4,4.21,16.88,1.61,21.05-5.72,4.21-7.4,1.64-16.95-5.75-21.16-7.33-4.17-16.85-1.5-21.07,5.9-4.17,7.32-1.56,16.82,5.77,20.98h0Z"/>
  <path class="cls-3" d="M707.1,99.79c.52-.58,1.44-.68,2.08-.12l17.28,15.37c6.94,6.16,7.61,16.81,1.5,23.68-4.73,5.32-12.06,6.46-18.88,4.02l-5.14,21.72c-.26,1.11-1.49,1.68-2.47.81l-7.69-6.84c-.46-.42-.55-1.01-.46-1.34l5.93-22.15-3.99-3.55-13.11,14.74c-.51.58-1.5.64-2.08.12l-6.88-6.11c-.64-.56-.64-1.5-.12-2.07l34.01-38.27h.02ZM710.35,131.65c2.37,2.11,6.34,1.71,8.5-.72,2.16-2.43,1.88-6.19-.48-8.3l-8.56-7.6-8.02,9.02,8.56,7.6Z"/>
  <path class="cls-3" d="M773.46,165.05c.61-.35,1.46-.1,1.82.41l.72,1c.23.32.38,1.06.14,1.52l-16.62,34.1.09.13,37.6-4.98c.51-.08,1.17.3,1.39.61l.73,1.01c.36.5.33,1.38-.19,1.86l-37.06,37.48c-.73.71-1.7.56-2.24-.2l-5.34-7.4c-.41-.57-.31-1.5.15-1.92l17.35-16.8-.09-.12-27.93,4.11c-.51.08-1.23-.25-1.46-.57l-.81-1.13c-.27-.37-.32-1.1-.08-1.56l12.69-25.26-.09-.13-21.38,11.21c-.55.3-1.41.16-1.86-.47l-5.34-7.4c-.54-.75-.39-1.73.52-2.19l47.28-23.3h.01Z"/>
  <path class="cls-3" d="M824.55,248.46c.71-.31,1.6-.03,1.94.75l12.92,29.28c.35.78-.04,1.62-.75,1.93l-7.71,3.41c-.71.31-1.59.03-1.93-.75l-8.65-19.6-8.77,3.87,7.12,16.13c.31.71-.04,1.62-.75,1.94l-7.71,3.4c-.78.35-1.62-.04-1.94-.75l-7.12-16.13-9.55,4.22,8.65,19.6c.35.78-.04,1.62-.75,1.93l-7.71,3.41c-.71.3-1.6.03-1.94-.76l-12.93-29.28c-.35-.78.04-1.62.75-1.94l46.82-20.66h.01Z"/>
  <path class="cls-3" d="M10.35,584.49l7.29,1.06c1.16.22,1.55,1.64,1.39,2.28-.04.35-1.84,7.01,0,11.77,1.12,2.88,3.73,4.26,6.25,3.29,3.03-1.17,4.35-4.59,4.4-10.24.04-7.15,1.85-16.8,10.49-20.16,7.13-2.77,16.49-.02,20.79,11.07,2.91,7.49,1.33,14.74.58,17.52-.17,1.06-1.52,1.42-2.13,1.33l-6.97-1.52c-.99-.19-2.14-1.25-1.89-2.09.11-.79,2.03-7.59.33-11.98-1.01-2.59-3.49-3.87-5.44-3.11-2.66,1.04-3.84,3.98-3.94,10.57-.05,6.48-.98,17.12-10.77,20.93-7.42,2.88-17.4-.62-21.51-11.21-3.64-9.37-1.76-16.07-.75-18.37.45-1,.65-1.33,1.88-1.14h0Z"/>
  <path class="cls-3" d="M36.13,656.93l56.95-7.11c.52-.05,1.14.2,1.42.66l.42.66c.29.46.24,1.12-.02,1.57l-31.27,48.13c-.61.93-1.79.94-2.4-.05l-4.55-7.27c-.75-1.18-.68-1.96.2-3.32l3.7-5.6-11.16-17.83-6.72.93c-1,.17-2.23-.06-3.05-1.38l-4.52-7.21c-.61-.98-.09-2.04,1.01-2.18h0ZM67.02,675.09l7.7-11.75-.04-.06-13.89,1.86,6.24,9.96h-.01Z"/>
  <path class="cls-3" d="M129.12,700.88c.55-.54,1.49-.47,2.02.08l1.35,1.38.26,42.83.05.06,19.67-19.15c.55-.54,1.48-.58,2.08.03l6.47,6.64c.54.55.53,1.54-.03,2.08l-37.29,36.31c-.56.54-1.48.48-2.02-.08l-.87-.89c-.16-.17-.42-.77-.42-.99l.69-43.31-.06-.06-20.66,20.13c-.56.54-1.49.58-2.08-.03l-6.42-6.59c-.54-.55-.52-1.54.03-2.08l37.23-36.37h0Z"/>
  <path class="cls-3" d="M194.04,773.31l-9.13-6.25c-.7-.48-.82-1.4-.38-2.04l4.76-6.96c.44-.64,1.34-.86,2.04-.38l28.33,19.39c.7.48.82,1.41.38,2.05l-4.76,6.95c-.44.64-1.34.87-2.04.38l-9.12-6.24-23.33,34.07c-.43.64-1.41.82-2.04.38l-7.66-5.24c-.64-.44-.82-1.41-.38-2.05l23.33-34.06h0Z"/>
  <path class="cls-3" d="M252.23,796.95c.32-.71,1.17-1.08,1.94-.73l29.18,13.17c.78.35,1.05,1.23.73,1.94l-3.46,7.68c-.32.71-1.17,1.09-1.95.74l-19.52-8.81-3.94,8.74,16.07,7.25c.71.32,1.05,1.24.74,1.94l-3.47,7.68c-.35.78-1.24,1.05-1.94.74l-16.07-7.25-4.29,9.52,19.52,8.81c.78.35,1.05,1.24.74,1.94l-3.47,7.68c-.32.71-1.17,1.08-1.94.73l-29.18-13.16c-.78-.35-1.05-1.24-.73-1.95l21.05-46.66h0ZM264.46,794.83l-.14-3.62c-.03-.69.55-1.02,1.03-1.15l15.28-1.93c.55-.09,1.68.25,1.74,1.04l.52,5.24c.08,1.31-.66,1.83-1.38,1.92h-15.44c-1.17.14-1.58-.64-1.62-1.5h.01Z"/>
  <path class="cls-3" d="M358,878.45l4.4-5.92c.74-.92,2.18-.59,2.66-.13.29.19,5.31,4.95,10.38,5.58,3.07.38,5.53-1.26,5.87-3.95.39-3.22-1.98-6.01-6.94-8.73-6.28-3.43-13.93-9.61-12.78-18.81.94-7.6,7.81-14.54,19.62-13.06,7.99,1,13.62,5.82,15.71,7.8.85.66.53,2.02.16,2.51l-4.65,5.42c-.64.78-2.11,1.3-2.73.67-.64-.47-5.72-5.39-10.4-5.97-2.76-.35-5.07,1.24-5.32,3.31-.36,2.83,1.68,5.27,7.43,8.48,5.69,3.12,14.62,8.99,13.32,19.43-.98,7.9-8.81,15.03-20.08,13.63-9.97-1.25-14.98-6.07-16.53-8.06-.67-.87-.86-1.2-.12-2.2Z"/>
  <path class="cls-3" d="M437.71,838.93c-.04-.77.53-1.5,1.38-1.55l31.96-1.89c.85-.05,1.51.6,1.56,1.38l.5,8.41c.05.77-.53,1.5-1.38,1.56l-21.38,1.26.57,9.57,17.6-1.04c.78-.04,1.51.61,1.55,1.38l.5,8.41c.05.85-.6,1.51-1.38,1.56l-17.6,1.04.62,10.42,21.38-1.26c.85-.05,1.51.61,1.56,1.38l.5,8.42c.04.77-.54,1.5-1.38,1.55l-31.96,1.89c-.84.05-1.5-.61-1.55-1.38l-3.03-51.1h-.02Z"/>
  <path class="cls-3" d="M528.77,851.96l-21.16-19.54c-.85-.82-.54-2.1.73-2.42l10.93-2.82c.53-.13,1.08.12,1.38.36l12.2,11.71.08-.02,5.17-16.18c.07-.34.49-.85,1.02-.98l10.93-2.82c1.28-.32,2.24.63,1.81,1.77l-9.16,27.35,22.11,20.73c.95.88.54,2.09-.66,2.4l-10.41,2.69c-.45.12-1.13-.03-1.44-.35l-13.71-12.6-.15.04-5.69,17.59c-.15.36-.5.85-1.1,1.01l-10.41,2.68c-1.28.33-2.24-.62-1.81-1.76l9.34-28.84h0Z"/>
  <path class="cls-3" d="M586.36,807.47c-.34-.7-.02-1.62.67-1.97l8.54-4.19c.77-.37,1.62-.02,1.97.67l13.78,28.11c2.38,4.86,7.9,6.97,12.82,4.56,5-2.45,6.77-8.14,4.39-13l-13.78-28.1c-.34-.7-.09-1.6.67-1.97l8.54-4.19c.69-.34,1.62-.02,1.96.67l14.06,28.67c5.17,10.54.58,23.64-10.39,29.02-10.89,5.34-24,.92-29.17-9.63l-14.05-28.66h0Z"/>
  <path class="cls-3" d="M660.69,765.73c-.47-.62-.4-1.54.27-2.06l25.38-19.51c.67-.52,1.59-.34,2.06.27l5.14,6.68c.47.61.41,1.54-.27,2.06l-16.98,13.05,5.84,7.6,13.98-10.74c.61-.47,1.59-.34,2.06.27l5.14,6.68c.51.67.34,1.59-.27,2.06l-13.97,10.74,6.36,8.28,16.97-13.05c.68-.51,1.59-.35,2.07.27l5.14,6.68c.47.61.4,1.54-.27,2.06l-25.38,19.51c-.68.52-1.59.35-2.06-.27l-31.19-40.58h-.02Z"/>
  <path class="cls-3" d="M716.94,717.37c-.57-.52-.67-1.45-.1-2.08l6.17-6.82c.52-.57,1.5-.62,2.08-.11l30.6,27.7,12.35-13.64c.56-.64,1.5-.63,2.07-.11l6.25,5.66c.57.52.67,1.44.1,2.08l-19.5,21.55c-.57.63-1.5.62-2.08.1l-37.94-34.33h0Z"/>
  <path class="cls-3" d="M760.12,664.15c-.66-.42-.91-1.31-.46-2.03l4.91-7.78c.42-.66,1.37-.87,2.03-.46l34.91,22.03,9.82-15.56c.45-.72,1.38-.87,2.03-.46l7.13,4.49c.65.41.91,1.31.46,2.03l-15.51,24.58c-.45.72-1.38.87-2.03.46l-43.27-27.3h-.02Z"/>
  <path class="cls-3" d="M793.58,604.55c-.72-.29-1.13-1.13-.81-1.92l12.04-29.66c.32-.78,1.2-1.1,1.92-.8l7.81,3.17c.72.29,1.13,1.13.81,1.91l-8.05,19.85,8.88,3.6,6.63-16.34c.3-.72,1.2-1.09,1.92-.8l7.8,3.17c.79.32,1.1,1.2.81,1.91l-6.63,16.34,9.68,3.92,8.05-19.84c.32-.78,1.2-1.1,1.92-.81l7.81,3.17c.72.29,1.13,1.13.81,1.91l-12.03,29.66c-.32.79-1.2,1.1-1.92.81l-47.43-19.24h-.02Z"/>
  <path class="cls-1" d="M625.44,268.74c-5.68-19.08-17.88-38.2-33.46-52.47-18.75-17.17-40.88-25.81-62.33-24.38-36.32,2.45-67.67,25.19-94.44,50.73-26.76-25.54-58.12-48.29-94.44-50.73-21.45-1.46-43.58,7.21-62.33,24.38-15.58,14.27-27.78,33.39-33.46,52.47-12.65,42.46-2.12,94.79,25.6,127.28,16.16,18.93,36.11,32.24,55.4,45.1,15.1,10.07,29.35,19.57,40.97,31.16,16.48,16.43,25.41,41.24,24.51,68.08-2.57,76.46-110.25,105.25-111.34,105.53l10.93,42.66c1.41-.36,34.89-9.05,68.97-30.37,46.14-28.85,72.04-67.33,75.19-111.52,3.15,44.19,29.05,82.66,75.19,111.52,34.08,21.32,67.56,30.01,68.97,30.37l10.93-42.66c-1.09-.28-108.77-29.07-111.34-105.53-.9-26.84,8.03-51.65,24.51-68.08,11.62-11.58,25.88-21.09,40.97-31.16,19.3-12.87,39.25-26.17,55.4-45.1,27.72-32.49,38.24-84.82,25.6-127.28h0ZM566.34,367.43c-12.18,14.28-28.77,25.34-46.34,37.05-16.2,10.8-32.95,21.97-47.63,36.61-21.79,21.73-34.94,52.27-37.17,85.47-2.23-33.2-15.38-63.74-37.17-85.47-14.68-14.64-31.43-25.81-47.63-36.61-17.56-11.71-34.15-22.77-46.34-37.05-18.27-21.42-25.38-57.63-16.89-86.12,6.74-22.62,29.85-46.88,50.63-45.48,28.48,1.92,57.83,28.63,80.43,52.07l-.02.02,16.64,16.64,16.04-16.04.36.34c22.71-23.67,52.49-51.08,81.35-53.03,20.84-1.36,43.89,22.86,50.63,45.48,8.49,28.49,1.38,64.7-16.89,86.12h0Z"/>
</svg>