<svg xmlns="http://www.w3.org/2000/svg" width="158.5" height="42" viewBox="0 0 332 84" data-testid="luminus-logo" aria-label="Retour à la page d'accueil" class="luminus-1235i6v"><g clip-path="url(#clip0_93_4627)"><path d="M37.4625 57.3737C36.786 58.0988 34.9352 58.3609 34.4096 59.1752C33.6212 60.4134 31.7984 63.2466 30.3726 64.5908C25.7764 68.9355 15.9411 71.1274 11.0878 66.9667C10.7747 66.9667 10.9592 67.1731 11.3338 68.3555C11.6861 70.5864 13.5089 75.9016 12.8379 77.2457C13.274 78.7516 13.7325 78.1994 14.5545 79.0305C15.1136 79.5882 15.354 81.0606 15.9971 81.4622L18.2336 81.306C18.3678 81.7187 18.502 82.1315 18.6418 82.5442L21.4822 82.3434C22.0414 82.4661 23.6349 83.286 24.1046 83.4254L27.2638 83.1967C29.6849 83.8437 31.7872 82.8342 33.8225 81.4678C34.9408 80.7037 36.2044 80.8208 37.2109 79.9619C38.9307 78.3952 40.4063 76.5811 41.589 74.5798C43.8815 70.4414 43.1043 60.5249 41.0298 58.0765C40.2191 57.1897 39.263 57.1785 37.4849 57.3737M56.5964 54.6576C54.8854 55.9627 54.1641 55.6392 53.1632 57.6582C53.057 57.6582 53.3142 57.9649 53.208 57.9649C54.2312 59.9951 56.5628 60.8149 58.2906 62.2483C58.8497 62.6945 60.2811 65.2043 60.9688 65.3883C61.7461 66.3142 62.2493 68.8686 62.7525 68.8686C63.3117 69.5769 62.7134 71.2668 63.2278 71.925C63.2669 74.9479 62.842 75.1598 62.3164 75.7398C62.3164 75.9518 62.6071 76.4984 62.6071 76.7103C62.7469 76.8553 63.9658 77.7254 64.4914 77.6194C66.1689 77.664 72.8786 82.9234 73.4377 83.9385C78.2911 84.3122 77.9109 82.823 81.2657 81.412C82.1771 81.0271 82.8928 81.412 83.5023 80.7762C84.1117 80.1404 84.1788 78.891 84.7715 78.2496C84.8554 66.3476 68.6179 55.0703 56.5908 54.6576M69.7362 29.5206C63.7422 30.413 60.0519 32.3093 57.7761 33.8932C56.8312 34.4976 56.0189 35.2869 55.3886 36.2134C54.9523 36.9974 54.8077 37.9101 54.9804 38.7901C55.0356 39.3446 55.2015 39.8825 55.4685 40.372C55.7355 40.8615 56.0981 41.2927 56.5349 41.6401C63.9155 41.0824 76.7311 40.6362 79.2248 46.8214C79.359 47.6804 79.5491 48.1935 79.5771 48.4054C82.015 47.8031 80.2313 48.015 83.8266 48.5839C84.6541 48.7122 86.6838 48.2492 88.0369 47.9258C88.4295 47.8129 88.7687 47.5636 88.993 47.223C88.9272 46.9227 88.8972 46.6157 88.9036 46.3083C88.9036 46.3083 90.1617 46.3976 90.6817 46.0016C94.0924 45.4438 92.3032 43.8432 93.9135 42.0473C92.9518 30.4855 81.0756 27.7916 69.7362 29.5206ZM23.9704 50.5973C25.29 50.2571 27.5377 50.0786 28.7175 49.4818C30.6018 48.5504 37.0599 44.0216 35.0079 40.3741C34.3705 32.6383 25.016 39.1749 21.0293 36.4699C16.9979 35.9512 12.4633 28.3494 11.2555 25.0922C11.0709 24.4162 10.7577 23.7819 10.3329 23.2238C10.3329 23.1178 9.91918 23.5752 9.92477 23.4748C8.75616 24.8357 8.94627 26.0348 8.77853 29.3756L7.19616 29.2696C7.09551 30.4855 6.9725 31.138 6.40218 31.7571L6.04992 32.3706C5.04905 32.036 5.55228 32.51 5.13851 31.6846C1.4314 31.8575 1.70538 35.5887 0 37.697C0.0782799 44.6351 13.8555 53.2075 23.9704 50.5973ZM50.8092 12.8388C51.1112 10.2175 50.7254 6.3803 52.7998 4.57883C53.4092 1.79017 57.8321 2.42598 57.1387 0.674705C56.7138 -0.440759 54.6338 0.116973 53.7839 0.295447C53.1465 0.446035 47.0742 2.35906 44.7593 2.61561L41.8182 1.76228C38.0217 2.2754 35.8242 5.29273 33.7163 7.69655C31.9382 9.70438 29.5395 14.6236 31.4461 17.5628L31.1274 19.4814L35.4496 25.7894C36.9425 26.8546 37.127 27.6466 38.743 28.7007C39.0728 29.1971 39.3971 29.6935 39.7326 30.1843C41.0466 31.0488 44.9159 31.0544 45.5645 30.4966C51.7933 31.0544 51.1168 18.4998 53.0961 15.8673C52.7334 14.6131 51.9216 13.5354 50.8148 12.8388" fill="#FE5815"/><path d="M117.088 21.2384H125.324V67.2401H117.088V21.2384Z" fill="#09357A"/><path d="M161.853 67.2402H154.025V62.9456H153.902C152.665 64.5125 151.087 65.7786 149.287 66.6481C147.487 67.5177 145.513 67.968 143.513 67.9652C136.01 67.9652 132.75 62.6891 132.75 55.578V35.6558H140.992V52.5216C140.992 56.3867 141.053 61.5959 146.337 61.5959C152.303 61.5959 153.606 55.1597 153.606 51.1106V35.6558H161.848L161.853 67.2402Z" fill="#09357A"/><path d="M168.982 35.6558H176.671V40.0731H176.794C177.803 38.4957 179.194 37.1969 180.838 36.2963C182.483 35.3958 184.328 34.9223 186.204 34.9196C190.627 34.9196 193.764 36.5928 195.547 40.4969C197.454 36.6932 201.575 34.9196 205.45 34.9196C213.278 34.9196 215.469 40.2571 215.469 47.3124V67.2458H207.233V48.4112C207.233 45.4663 207.233 41.2945 202.497 41.2945C197.023 41.2945 196.347 47.7976 196.347 51.8914V67.2234H188.111V48.4112C188.111 45.4663 188.111 41.2945 183.375 41.2945C177.901 41.2945 177.224 47.7976 177.224 51.8914V67.2234H168.982V35.6558Z" fill="#09357A"/><path d="M222.727 22.036H230.963V29.8889H222.727V22.036ZM222.727 35.6502H230.963V67.2402H222.727V35.6502Z" fill="#09357A"/><path d="M238.405 35.6558H246.233V39.9503H246.356C248.94 36.3306 252.445 34.9307 256.745 34.9307C264.249 34.9307 267.509 40.2069 267.509 47.3235V67.2569H259.25V50.3743C259.25 46.5092 259.189 41.2944 253.905 41.2944C247.939 41.2944 246.636 47.7362 246.636 51.7854V67.2401H238.405V35.6558Z" fill="#09357A"/><path d="M303.831 67.2402H296.003V62.9456H295.88C294.641 64.5124 293.062 65.7782 291.261 66.6476C289.461 67.5171 287.486 67.9677 285.485 67.9652C277.982 67.9652 274.728 62.6891 274.728 55.578V35.6558H282.964V52.5216C282.964 56.3867 283.025 61.5959 288.315 61.5959C294.281 61.5959 295.584 55.1597 295.584 51.1106V35.6558H303.82L303.831 67.2402Z" fill="#09357A"/><path d="M329.904 42.2761C327.551 41.3728 325.05 40.9151 322.529 40.9264C320.292 40.9264 317.675 41.7239 317.675 44.4233C317.675 49.4429 332 46.2639 332 57.6695C332 65.0315 325.419 67.9764 318.715 67.9764C315.556 67.9273 312.416 67.4737 309.372 66.6266L309.864 59.8781C312.368 61.1998 315.15 61.9144 317.983 61.964C320.068 61.964 323.39 61.1665 323.39 58.0989C323.39 51.9081 309.064 56.1413 309.064 44.7134C309.064 37.9035 315.031 34.8973 321.483 34.8973C324.512 34.9246 327.527 35.316 330.463 36.0629L329.904 42.2761Z" fill="#09357A"/></g><defs><clipPath id="clip0_93_4627"><rect width="332" height="84" fill="white"/></clipPath></defs></svg>