<svg xmlns="http://www.w3.org/2000/svg" id="Calque_2" data-name="Calque 2" viewBox="0 0 889.08 423.12"><defs><style>      .cls-1 {        fill: #fff;      }    </style></defs><g id="Calque_1-2" data-name="Calque 1"><g><path class="cls-1" d="m46.54,0c16.99-.21,39.68,5.87,57.16,8.27,232.39,31.97,445.29,33.4,677.67,0,44.13-6.34,97.47-26.88,107.65,36.68l.05,335.02c-9.25,65.15-80.72,38.49-124.68,32.61-211.09-28.28-423.61-29.54-634.72-1-23.7,3.2-70.79,14.96-91.84,10.56C16.47,417.67,1.76,398.27.06,376.93l-.06-329.02C1.52,21.59,19.22.34,46.54,0m791.33,17.68c-22.12.42-55.84,9.43-79.47,12.62-219.65,29.63-440.47,27.66-659.69-4.03C70.01,22.13,24.81,3.99,19.01,46.91v329.08c3.73,20.06,16.31,29.51,36.58,28.5,24.4-1.22,53.29-8.51,78.1-11.9,173.81-23.72,353.09-25.58,527.85-11.13,55.98,4.63,111.19,17.28,166.02,21.98,26.91,2.31,39.63-2.49,43.53-31.46V48.91c-2.14-17.97-14.31-31.58-33.2-31.22"></path><path class="cls-1" d="m802.04,59.94c.39-1.4,4.18-3.65,5.76-4.24,4.99-1.86,24.67-5.73,30.03-6.01,3.54-.19,4.65.96,5.12,4.31l-.36,316.49c-1.05,2.4-2.17,3.94-5,4-5.01.11-21.18-3.05-26.75-4.35-1.75-.41-6.01-1.01-6.89-2.37l-45.92-169.34v160.5c-1.86,2.27-5.72,1.65-8.49,1.48-3.82-.23-31.11-4.07-32.28-5.22l-1.14-3.32.12-275.73c1.17-4.39,4.72-5.34,8.58-6.42,3.97-1.11,32.32-5.78,34.5-5.13.73.22,1.32.66,1.77,1.27l40.93,140.56V59.94Z"></path><path class="cls-1" d="m667.69,334.09c-17.77,18-50.94,18.89-72.69,7.89-48.65-24.6-48.42-137.3-40.65-182.72,5.96-34.86,20.2-69.71,58.65-77.35,60.68-12.06,78.78,37.3,84.02,87.04,4.78,45.35,4.72,130.63-29.34,165.14m-46.92-205.42c-11.32,2.33-15.26,19.86-16.59,29.41-3.86,27.85-5.41,109.77,5.67,134.05,3.6,7.9,7.85,10.41,16.72,9.32,19.67-2.41,20.85-38.41,21.52-53.48,1.02-23.21,2.67-93.49-8.85-111.24-4.66-7.18-9.74-9.87-18.47-8.07"></path><path class="cls-1" d="m423.04,207.44v-110.5c0-.17,1.54-1.76,2.01-1.98,2.21-1.03,26.46-.91,30.47-.5,3.91.4,8.1.88,8.45,5.55l-.38,233.48c-1.11,2.69-2.12,3.61-5,4-6.56.88-25.27.68-32.06-.05-1.49-.16-3.62-.28-4.55-1.68l-42.93-133.32v133.5c0,.54-2.48,2.55-3.53,2.47-10.97-.1-22.03,1.99-33.02,1.07-3.95-.33-5.76-.24-6.36-4.6l-.14-236.99c.12-1.88.2-5.16,1.04-6.71,1.71-3.13,16.73,0,20.51.24,5.35.33,25.21-.08,27.96,3.04l37.53,112.97Z"></path><path class="cls-1" d="m274.04,84.44c1.45-1.45,37.72,2.89,40.52,4.99,1.21.91,2.24,1.94,2.46,3.54-2.02,58.79,2.77,119.44.07,178.01-2.45,53.11-22.61,82.58-79.59,79.51-37.97-2.05-41.96-21.78-45.5-55.5l.19-217.91,3.35-1.73c10.75,3.22,33.15.56,42.23,5.86,5.07,2.96,2.21,6.27,2.23,10.68.16,64.7.02,129.39.02,194.08-.12,22.8,23.73,25.85,30.34,4.26,4.48-14.64,3.45-45.66,3.75-62.25.85-47.82-.73-95.74-.05-143.55"></path><path class="cls-1" d="m93.04,312.44l47.78-7.76c4.76-.26,4.91,2.19,5.26,6.21.92,10.77.98,31.37,0,42.09-.35,3.87-.7,6.03-4.8,7.2-28.09,1.96-60.23,13.27-87.81,14.3-2.62.1-6.44-2.08-6.44-4.55V53.94c0-.28,1.03-2.33,1.69-2.54l44.92,8.01c.56.72-.61,1.33-.61,1.53v251.5Z"></path><path class="cls-1" d="m531.8,338.21c-1.56,1.13-3.39,1.12-5.22,1.28-8.13.68-25.9.02-34.08-1-2.66-.33-5.82-1.88-6.23-4.73l.2-238.38,1.2-.8c10.94-1.43,21.84-.93,32.85-1.14,4.69-.09,10.03-3.44,12.3,3.72l.26,235.83-1.28,5.22Z"></path><path class="cls-1" d="m140.69,67.55c6.4,2.43,28.2,2.03,32.31,5.42.83.68,1.68,2.04,1.79,3.11-7.45,18.55-13.93,39.09-22.58,57.03-1.12,2.32-2.02,5.82-4.67,6.34-2.61.51-17.96-1.93-19.53-3.48-2.34-2.32-.27-12.23.2-15.87,1.16-9.06,3.19-18.9,5.14-27.86.84-3.86,4.64-23.96,7.35-24.7"></path></g></g></svg>